<svg xmlns="http://www.w3.org/2000/svg" width="36" height="37" fill="none" viewBox="0 0 36 37">
    <path fill="#fff" d="M30.15 21.12c0-2.7-.68-5.22-2.04-7.56-1.34-2.26-3.14-4.05-5.4-5.37-2.32-1.36-4.84-2.04-7.56-2.04-2.72 0-5.24.68-7.56 2.04-2.26 1.32-4.06 3.11-5.4 5.37C.83 15.9.15 18.42.15 21.12c0 2.24.48 4.37 1.44 6.39.92 1.96 2.21 3.64 3.87 5.04l.03.03.03.03c.36.28.64.49.84.63.06.04.16.11.3.21l.12.12c1.24.84 2.57 1.48 3.99 1.92 1.44.44 2.91.66 4.41.66s2.96-.22 4.38-.66c1.44-.44 2.78-1.08 4.02-1.92l1.29-.96c.02 0 .03-.01.03-.03 1.62-1.42 2.89-3.11 3.81-5.07.96-2.02 1.44-4.15 1.44-6.39zm-15 13.14c-1.38 0-2.72-.21-4.02-.63-1.24-.42-2.41-1.01-3.51-1.77.02-.16.07-.39.15-.69v-.03c.18-.64.44-1.25.78-1.83.34-.6.74-1.12 1.2-1.56.46-.44.96-.83 1.5-1.17.56-.34 1.17-.6 1.83-.78.68-.18 1.37-.27 2.07-.27 1.02 0 2 .19 2.94.57.96.38 1.81.92 2.55 1.62.68.7 1.22 1.51 1.62 2.43.2.54.35 1.11.45 1.71-1.1.78-2.3 1.38-3.6 1.8-1.28.4-2.6.6-3.96.6zM10.56 20.4c-.26-.62-.39-1.27-.39-1.95 0-.68.13-1.32.39-1.92.28-.6.64-1.12 1.08-1.56.44-.44.97-.8 1.59-1.08.58-.26 1.22-.39 1.92-.39s1.35.14 1.95.42c.6.26 1.12.61 1.56 1.05.44.44.79.96 1.05 1.56.28.6.42 1.25.42 1.95s-.13 1.34-.39 1.92c-.26.58-.62 1.1-1.08 1.56-.46.46-1 .82-1.62 1.08-.6.26-1.24.39-1.92.39-.66 0-1.3-.13-1.92-.39-.6-.26-1.13-.61-1.59-1.05-.46-.46-.81-.99-1.05-1.59zm13.92 9.93v-.06l-.03-.09c-.3-.94-.73-1.82-1.29-2.64-.56-.82-1.24-1.53-2.04-2.13-.6-.44-1.25-.82-1.95-1.14.32-.2.61-.44.87-.72.44-.44.83-.93 1.17-1.47.68-1.1 1.01-2.3.99-3.6 0-.96-.18-1.87-.54-2.73-.36-.88-.87-1.64-1.53-2.28-.66-.64-1.42-1.14-2.28-1.5-.86-.38-1.77-.57-2.73-.57s-1.88.19-2.76.57c-.86.36-1.61.87-2.25 1.53-.64.64-1.14 1.4-1.5 2.28-.36.86-.54 1.77-.54 2.73 0 .66.09 1.28.27 1.86.18.66.43 1.24.75 1.74.24.46.63.95 1.17 1.47.26.28.56.52.9.72-.7.32-1.35.71-1.95 1.17-.78.6-1.46 1.31-2.04 2.13-.56.8-.99 1.67-1.29 2.61-.02.04-.03.09-.03.15-1.22-1.22-2.16-2.61-2.82-4.17-.68-1.6-1.02-3.28-1.02-5.04 0-2.38.6-4.59 1.8-6.63 1.16-1.98 2.73-3.55 4.71-4.71 2.04-1.2 4.25-1.8 6.63-1.8s4.59.6 6.63 1.8c1.98 1.16 3.55 2.73 4.71 4.71 1.2 2.04 1.8 4.24 1.8 6.6 0 1.74-.33 3.41-.99 5.01-.66 1.58-1.6 2.98-2.82 4.2z"/>
    <path fill="#fff" fill-rule="evenodd" d="M28.239 13.483v.002c1.374 2.363 2.061 4.909 2.061 7.635 0 2.262-.485 4.414-1.454 6.454-.923 1.966-2.195 3.663-3.816 5.091-.008.015-.018.03-.031.044-.02.02-.043.032-.065.04l-1.27.945c-1.252.849-2.606 1.495-4.06 1.94-1.434.444-2.91.666-4.424.666-1.515 0-3-.222-4.454-.666-1.434-.445-2.778-1.092-4.03-1.94l-.012-.008-.121-.121c-.135-.096-.23-.163-.286-.2l-.003-.002c-.203-.142-.485-.354-.846-.635l-.007-.005-.007-.007.106-.106c.36.28.64.49.84.63.06.04.16.11.3.21l.12.12c1.24.84 2.57 1.48 3.99 1.92 1.44.44 2.91.66 4.41.66s2.96-.22 4.38-.66c1.44-.44 2.78-1.08 4.02-1.92l1.29-.96c.02 0 .03-.01.03-.03 1.62-1.42 2.89-3.11 3.81-5.07.96-2.02 1.44-4.15 1.44-6.39 0-2.7-.68-5.22-2.04-7.56-1.34-2.26-3.14-4.05-5.4-5.37-2.32-1.36-4.84-2.04-7.56-2.04-2.72 0-5.24.68-7.56 2.04-2.26 1.32-4.06 3.11-5.4 5.37C.83 15.9.15 18.42.15 21.12c0 2.24.48 4.37 1.44 6.39.92 1.96 2.21 3.64 3.87 5.04l.06.06-.106.106-.056-.055c-1.674-1.414-2.975-3.11-3.904-5.087C.484 25.534 0 23.382 0 21.12c0-2.727.687-5.273 2.06-7.635l.001-.002c1.353-2.281 3.171-4.09 5.453-5.422C9.857 6.687 12.404 6 15.15 6c2.746 0 5.292.687 7.636 2.06 2.282 1.333 4.1 3.142 5.453 5.423zM7.77 31.17c-.08.3-.13.53-.15.69 1.1.76 2.27 1.35 3.51 1.77 1.3.42 2.64.63 4.02.63 1.36 0 2.68-.2 3.96-.6 1.3-.42 2.5-1.02 3.6-1.8-.1-.6-.25-1.17-.45-1.71-.4-.92-.94-1.73-1.62-2.43-.74-.7-1.59-1.24-2.55-1.62-.94-.38-1.92-.57-2.94-.57-.7 0-1.39.09-2.07.27-.66.18-1.27.44-1.83.78-.54.34-1.04.73-1.5 1.17-.46.44-.86.96-1.2 1.56-.34.58-.6 1.19-.78 1.83v.03zm.15-.01c.176-.62.43-1.211.76-1.774v-.002c.334-.588.725-1.096 1.174-1.526.452-.432.944-.816 1.475-1.15.547-.332 1.143-.587 1.79-.763.667-.177 1.344-.265 2.031-.265 1 0 1.962.186 2.884.56.942.372 1.775.901 2.5 1.587.666.685 1.194 1.478 1.587 2.379.185.502.327 1.03.425 1.586-1.066.744-2.226 1.32-3.481 1.725-1.266.395-2.57.593-3.915.593-1.364 0-2.688-.207-3.973-.622-1.197-.406-2.329-.972-3.395-1.699.024-.144.068-.337.133-.58l.005-.02v-.028zm2.78-10.816c.232.58.57 1.093 1.015 1.539.446.426.96.766 1.544 1.019.601.252 1.222.378 1.861.378.66 0 1.28-.126 1.86-.378h.002c.603-.253 1.126-.602 1.572-1.048.447-.447.797-.952 1.05-1.515.25-.56.376-1.178.376-1.859 0-.68-.136-1.308-.406-1.887l-.002-.003c-.253-.584-.592-1.088-1.018-1.514-.426-.426-.93-.766-1.514-1.018l-.003-.002c-.58-.27-1.208-.406-1.887-.406-.68 0-1.3.126-1.858.377-.605.273-1.12.623-1.546 1.05-.426.425-.776.93-1.05 1.514-.25.58-.376 1.2-.376 1.859 0 .66.126 1.29.378 1.892l.001.002zm-.14-3.814c.28-.6.64-1.12 1.08-1.56.44-.44.97-.8 1.59-1.08.58-.26 1.22-.39 1.92-.39s1.35.14 1.95.42c.6.26 1.12.61 1.56 1.05.44.44.79.96 1.05 1.56.28.6.42 1.25.42 1.95s-.13 1.34-.39 1.92c-.26.58-.62 1.1-1.08 1.56-.46.46-1 .82-1.62 1.08-.6.26-1.24.39-1.92.39-.66 0-1.3-.13-1.92-.39-.6-.26-1.13-.61-1.59-1.05-.46-.46-.81-.99-1.05-1.59-.26-.62-.39-1.27-.39-1.95 0-.68.13-1.32.39-1.92zm14.053 13.665l-.044.045-.03.03-.059.06v-.06l-.03-.09-.008-.025c-.3-.93-.727-1.802-1.282-2.615-.56-.82-1.24-1.53-2.04-2.13-.554-.406-1.15-.761-1.79-1.065l-.16-.075c.05-.031.1-.064.148-.097.262-.18.503-.387.722-.623.44-.44.83-.93 1.17-1.47.68-1.1 1.01-2.3.99-3.6 0-.96-.18-1.87-.54-2.73-.36-.88-.87-1.64-1.53-2.28-.66-.64-1.42-1.14-2.28-1.5-.86-.38-1.77-.57-2.73-.57s-1.88.19-2.76.57c-.86.36-1.61.87-2.25 1.53-.64.64-1.14 1.4-1.5 2.28-.36.86-.54 1.77-.54 2.73 0 .66.09 1.28.27 1.86.18.66.43 1.24.75 1.74.24.46.63.95 1.17 1.47.22.237.47.446.747.626.05.032.101.063.153.094l-.164.076c-.638.305-1.233.67-1.786 1.094-.78.6-1.46 1.31-2.04 2.13-.555.793-.982 1.655-1.282 2.585l-.008.025c-.02.04-.03.09-.03.15l-.134-.136c-1.155-1.187-2.05-2.532-2.686-4.034-.68-1.6-1.02-3.28-1.02-5.04 0-2.38.6-4.59 1.8-6.63 1.16-1.98 2.73-3.55 4.71-4.71 2.04-1.2 4.25-1.8 6.63-1.8s4.59.6 6.63 1.8c1.98 1.16 3.55 2.73 4.71 4.71 1.2 2.04 1.8 4.24 1.8 6.6 0 1.74-.33 3.41-.99 5.01-.636 1.522-1.531 2.877-2.687 4.065zm-.053-.161c1.116-1.161 1.983-2.481 2.602-3.961.652-1.582.978-3.233.978-4.953 0-2.333-.593-4.507-1.78-6.524-1.146-1.958-2.698-3.51-4.656-4.657-2.017-1.186-4.2-1.779-6.554-1.779-2.353 0-4.537.593-6.554 1.78-1.958 1.146-3.51 2.698-4.657 4.656-1.186 2.017-1.779 4.2-1.779 6.554 0 1.74.336 3.4 1.008 4.981.618 1.462 1.485 2.773 2.602 3.933.303-.916.728-1.766 1.277-2.55.589-.832 1.28-1.554 2.072-2.163.537-.412 1.114-.769 1.73-1.07-.256-.174-.488-.372-.696-.596-.543-.523-.943-1.023-1.193-1.5-.327-.512-.581-1.104-.764-1.773-.184-.595-.276-1.23-.276-1.902 0-.979.184-1.909.551-2.787.367-.897.878-1.674 1.532-2.328.654-.674 1.42-1.195 2.298-1.563.899-.388 1.839-.582 2.819-.582s1.91.194 2.79.582c.876.367 1.651.877 2.324 1.53.676.655 1.197 1.432 1.565 2.33.367.879.55 1.808.551 2.787.02 1.328-.318 2.556-1.012 3.68h-.001c-.345.55-.742 1.047-1.189 1.495-.206.222-.431.42-.674.593.617.3 1.196.647 1.735 1.042l.001.001c.813.61 1.505 1.332 2.074 2.165.548.803.974 1.663 1.276 2.579z" clip-rule="evenodd"/>
</svg>
