<svg xmlns="http://www.w3.org/2000/svg" width="36" height="36" fill="none" viewBox="0 0 36 36">
    <path stroke="#fff" stroke-width="2.25" d="M1.624 17.049l.001-.025V17c0-1.847.43-3.005 1.124-3.712.69-.702 1.843-1.163 3.751-1.163H22c1.873 0 3.034.505 3.739 1.245.714.75 1.136 1.926 1.136 3.63v.024l.001.025.499 11.474c-.013 3.51-2.862 6.352-6.375 6.352H7.5c-3.513 0-6.362-2.842-6.375-6.352l.499-11.474z"/>
    <path stroke="#fff" stroke-linecap="round" stroke-linejoin="round" stroke-width="2.25" d="M10 17c0 2.025 0 5.5 4.5 5.5S19 19.025 19 17M19 11.5C19 9.475 19 6 14.5 6S10 9.475 10 11.5"/>
</svg>
