<svg xmlns="http://www.w3.org/2000/svg" width="146" height="32" fill="none" viewBox="0 0 146 32">
    <path fill="#fff" d="M12.202 22h-2.97V11.978h2.97V22zm-1.486-11.395C9.765 10.605 9 9.793 9 8.803 9 7.803 9.774 7 10.716 7c.952 0 1.717.813 1.717 1.803.009.99-.765 1.802-1.717 1.802zM23.318 22h-2.961v-4.875c0-1.159-.018-2.662-1.539-2.662-1.547 0-1.779 1.27-1.779 2.578V22h-2.97V11.978h2.846v1.373h.036c.4-.784 1.37-1.616 2.81-1.616 3.006 0 3.557 2.074 3.557 4.773V22z"/>
    <rect width="30.75" height="30.75" x=".625" y=".625" stroke="#fff" stroke-width="1.25" rx="15.375"/>
    <path fill="#fff" d="M62 11.534c-.231.329-.487.64-.767.932-.268.28-.56.536-.877.767.012.146.018.292.018.438 0 .658-.073 1.31-.219 1.955-.134.633-.335 1.248-.602 1.844-.378.84-.859 1.614-1.443 2.32-.573.682-1.23 1.266-1.973 1.753-.743.475-1.54.835-2.393 1.078-.889.256-1.79.378-2.703.365-.889 0-1.765-.122-2.63-.365-.852-.243-1.656-.609-2.411-1.096.877.098 1.735.03 2.575-.2.84-.244 1.602-.634 2.283-1.17-.511 0-.998-.122-1.46-.365-.451-.244-.829-.572-1.133-.986-.195-.28-.347-.585-.457-.914l.31.037c.39.037.774 0 1.151-.11-.365-.073-.712-.207-1.04-.401-.317-.195-.597-.439-.84-.731-.244-.292-.433-.615-.567-.968-.122-.365-.183-.737-.183-1.114v-.037c.463.268.962.408 1.498.42-.45-.304-.804-.7-1.06-1.187-.133-.231-.23-.48-.292-.749-.146-.548-.146-1.096 0-1.644.073-.28.19-.548.347-.803.414.523.877.986 1.389 1.388 1.022.816 2.167 1.394 3.433 1.735.633.17 1.279.274 1.936.31-.036-.121-.06-.243-.073-.365-.012-.134-.018-.262-.018-.383 0-.463.085-.89.256-1.279.17-.39.402-.736.694-1.041.304-.304.657-.542 1.06-.712.401-.17.827-.256 1.278-.256.45 0 .883.091 1.297.274.414.183.773.438 1.077.767.743-.146 1.437-.414 2.082-.804-.121.39-.304.743-.548 1.06-.243.304-.541.56-.895.767.658-.085 1.285-.256 1.882-.511l.018-.019z"/>
    <rect width="30.75" height="30.75" x="38.625" y=".625" stroke="#fff" stroke-width="1.25" rx="15.375"/>
    <path fill="#fff" d="M93.089 25v-8.208h2.763l.418-3.2h-3.181v-2.04c0-.928.257-1.56 1.59-1.56h1.703V7.128C96.085 7.088 95.072 7 93.9 7c-2.45 0-4.129 1.488-4.129 4.232v2.36H87v3.2h2.771V25h3.318z"/>
    <rect width="30.75" height="30.75" x="76.625" y=".625" stroke="#fff" stroke-width="1.25" rx="15.375"/>
    <g fill="#fff" clip-path="url(#clip0)">
        <path d="M132.829 9h-5.658c-2.3 0-4.171 1.871-4.171 4.17v5.66c0 2.3 1.871 4.17 4.171 4.17h5.658c2.3 0 4.171-1.87 4.171-4.17v-5.66c0-2.299-1.871-4.17-4.171-4.17zm2.763 9.83c0 1.525-1.237 2.762-2.763 2.762h-5.658c-1.526 0-2.762-1.237-2.762-2.763v-5.658c0-1.526 1.236-2.762 2.762-2.762h5.658c1.526 0 2.763 1.236 2.763 2.762v5.658z"/>
        <path d="M130 12.38c-1.997 0-3.621 1.623-3.621 3.62s1.624 3.621 3.621 3.621c1.997 0 3.621-1.624 3.621-3.62 0-1.998-1.625-3.622-3.621-3.622zm0 5.833c-1.222 0-2.213-.991-2.213-2.213s.991-2.212 2.213-2.212 2.212.99 2.212 2.212c0 1.222-.99 2.213-2.212 2.213zM133.628 13.274c.479 0 .868-.388.868-.868 0-.479-.389-.867-.868-.867s-.868.388-.868.867c0 .48.389.868.868.868z"/>
    </g>
    <rect width="30.75" height="30.75" x="114.625" y=".625" stroke="#fff" stroke-width="1.25" rx="15.375"/>
    <defs>
        <clipPath id="clip0">
            <path fill="#fff" d="M0 0H14V14H0z" transform="translate(123 9)"/>
        </clipPath>
    </defs>
</svg>
